HIERARCHY
ROOT Pelvis
{
	OFFSET 0.000000 0.000000 0.000000
	CHANNELS 6 Xposition Yposition Zposition Xrotation Yrotation Zrotation
	JOINT LeftUpLeg_virtual
	{
		OFFSET 0.000000 0.000000 0.000000
		CHANNELS 3 Xrotation Yrotation Zrotation
		JOINT LeftUpLeg
		{
			OFFSET 18.735201 -5.666702 -4.541200
			CHANNELS 3 Xrotation Yrotation Zrotation
			JOINT LeftLeg
			{
				OFFSET -0.021200 -31.938179 0.493100
				CHANNELS 3 Xrotation Yrotation Zrotation
				JOINT LeftFoot
				{
					OFFSET 0.021200 -31.938179 -4.336299
					CHANNELS 3 Xrotation Yrotation Zrotation
					JOINT LeftToeBase
					{
						OFFSET 0.943001 -26.722000 15.023500
						CHANNELS 3 Xrotation Yrotation Zrotation
						End Site
						{
							OFFSET 0 0 0
						}
					}
				}
			}
		}
	}
	JOINT RightUpLeg_virtual
	{
		OFFSET 0.000000 0.000000 0.000000
		CHANNELS 3 Xrotation Yrotation Zrotation
		JOINT RightUpLeg
		{
			OFFSET -18.735201 -5.666702 -4.541200
			CHANNELS 3 Xrotation Yrotation Zrotation
			JOINT RightLeg
			{
				OFFSET 0.018946 -31.938133 0.493100
				CHANNELS 3 Xrotation Yrotation Zrotation
				JOINT RightFoot
				{
					OFFSET -0.018946 -31.938126 -4.336299
					CHANNELS 3 Xrotation Yrotation Zrotation
					JOINT RightToeBase
					{
						OFFSET -0.943001 -26.722004 15.023500
						CHANNELS 3 Xrotation Yrotation Zrotation
						End Site
						{
							OFFSET 0 0 0
						}
					}
				}
			}
		}
	}
	JOINT Hips_virtual
	{
		OFFSET 0.000000 0.000000 0.000000
		CHANNELS 3 Xrotation Yrotation Zrotation
		JOINT Hips
		{
			OFFSET -0.000000 -0.000000 -0.000000
			CHANNELS 3 Xrotation Yrotation Zrotation
			JOINT Spine
			{
				OFFSET 0.000000 10.199997 -0.299500
				CHANNELS 3 Xrotation Yrotation Zrotation
				JOINT Spine1
				{
					OFFSET 0.000000 11.900002 -1.516600
					CHANNELS 3 Xrotation Yrotation Zrotation
					JOINT Spine2
					{
						OFFSET 0.000000 13.600006 -2.842500
						CHANNELS 3 Xrotation Yrotation Zrotation
						JOINT Neck_virtual
						{
							OFFSET 0.000000 0.000000 0.000000
							CHANNELS 3 Xrotation Yrotation Zrotation
							JOINT Neck
							{
								OFFSET 0.000000 9.624100 -2.890100
								CHANNELS 3 Xrotation Yrotation Zrotation
								JOINT Head
								{
									OFFSET 0.000000 14.068802 -1.351900
									CHANNELS 3 Xrotation Yrotation Zrotation
									End Site
									{
										OFFSET 0 0 0
									}
								}
							}
						}
						JOINT LeftShoulder_virtual
						{
							OFFSET 0.000000 0.000000 0.000000
							CHANNELS 3 Xrotation Yrotation Zrotation
							JOINT LeftShoulder
							{
								OFFSET 15.263000 10.923401 -0.547700
								CHANNELS 3 Xrotation Yrotation Zrotation
								JOINT LeftArm
								{
									OFFSET 25.438599 -2.830597 -13.032500
									CHANNELS 3 Xrotation Yrotation Zrotation
									JOINT LeftForeArm
									{
										OFFSET 29.960503 0.000000 0.000000
										CHANNELS 3 Xrotation Yrotation Zrotation
										JOINT LeftHand
										{
											OFFSET 27.849251 0.000000 0.000000
											CHANNELS 3 Xrotation Yrotation Zrotation
											End Site
											{
												OFFSET 0 0 0
											}
										}
									}
								}
							}
						}
						JOINT RightShoulder_virtual
						{
							OFFSET 0.000000 0.000000 0.000000
							CHANNELS 3 Xrotation Yrotation Zrotation
							JOINT RightShoulder
							{
								OFFSET -15.263000 10.923401 -0.547700
								CHANNELS 3 Xrotation Yrotation Zrotation
								JOINT RightArm
								{
									OFFSET -25.438599 -2.830597 -13.032500
									CHANNELS 3 Xrotation Yrotation Zrotation
									JOINT RightForeArm
									{
										OFFSET -29.960503 0.000000 0.000000
										CHANNELS 3 Xrotation Yrotation Zrotation
										JOINT RightHand
										{
											OFFSET -27.849251 0.000000 0.000000
											CHANNELS 3 Xrotation Yrotation Zrotation
											End Site
											{
												OFFSET 0 0 0
											}
										}
									}
								}
							}
						}
					}
				}
			}
		}
	}
}
MOTION
Frames: 14
Frame Time: 0.03333333
0.013640 94.158676 3.861879 0.000000 0.000000 0.000000 -3.661843 3.344685 2.164738 -2.598250 8.064651 4.607787 18.444188 3.599698 0.672398 -11.479893 0.917963 -5.368371 0.000000 0.000000 0.000000 -3.661843 3.344685 2.164738 -3.341320 -11.316691 -11.702898 22.244616 -4.423525 -1.301979 -14.067458 -2.863962 10.810972 0.000000 0.000000 0.000000 -3.661843 3.344685 2.164738 0.000000 0.000000 0.000000 4.353813 -0.777549 -0.502791 1.013959 -0.170731 0.054478 0.000000 0.000000 0.000000 1.013874 -0.177046 0.069540 0.376926 -0.217855 0.050826 0.000000 0.000000 0.000000 1.013874 -0.177046 0.069540 0.674921 -2.078744 -16.856784 4.778423 -6.136922 -37.933877 0.000022 -66.118936 0.000048 0.000000 0.000000 0.000000 1.013874 -0.177046 0.069540 0.088521 8.205040 21.087099 -3.899873 6.709554 55.252576 -0.000005 9.850092 0.000028 0.000000 0.000000 0.000000 
0.023655 94.159569 3.878937 0.000000 0.000000 0.000000 -3.662171 3.428164 2.190958 -2.607936 8.082883 4.590247 18.444193 3.541511 0.635596 -11.473692 0.914154 -5.284614 0.000000 0.000000 0.000000 -3.662171 3.428164 2.190958 -3.281895 -11.320613 -11.718217 22.226904 -4.506346 -1.300114 -14.095533 -2.876065 10.840687 0.000000 0.000000 0.000000 -3.662171 3.428164 2.190958 0.000000 0.000000 0.000000 4.298497 -0.742957 -0.518154 1.003490 -0.162739 0.054478 0.000000 0.000000 0.000000 1.003401 -0.169834 0.069539 0.381967 -0.178337 0.043231 0.000000 0.000000 0.000000 1.003401 -0.169834 0.069539 0.668923 -2.098532 -16.857006 4.777335 -6.116304 -37.949378 0.000029 -66.118963 0.000044 0.000000 0.000000 0.000000 1.003401 -0.169834 0.069539 0.189312 8.114529 20.696778 -3.948091 6.617983 55.456983 -0.000003 9.661269 0.000014 0.000000 0.000000 0.000000 
0.034975 94.160553 3.896704 0.000000 0.000000 0.000000 -3.667681 3.522640 2.220528 -2.600468 8.092772 4.568945 18.413821 3.478401 0.608951 -11.449438 0.909871 -5.235462 0.000000 0.000000 0.000000 -3.667681 3.522640 2.220528 -3.210840 -11.324924 -11.734723 22.208838 -4.596378 -1.298096 -14.127708 -2.893532 10.873320 0.000000 0.000000 0.000000 -3.667681 3.522640 2.220528 0.000000 0.000000 0.000000 4.244515 -0.711314 -0.529850 0.993090 -0.154234 0.054478 0.000000 0.000000 0.000000 0.993004 -0.161421 0.069539 0.387154 -0.136731 0.035576 0.000000 0.000000 0.000000 0.993004 -0.161421 0.069539 0.669284 -2.097340 -16.856991 4.776128 -6.115298 -37.967734 -0.000015 -66.105269 -0.000009 0.000000 0.000000 0.000000 0.993004 -0.161421 0.069539 0.288256 8.054237 20.313281 -4.008391 6.518863 55.627181 0.000003 9.463816 -0.000014 0.000000 0.000000 0.000000 
0.050860 94.162132 3.915037 0.000000 0.000000 0.000000 -3.674713 3.627355 2.258869 -2.580051 8.096726 4.529799 18.360553 3.417470 0.589890 -11.413308 0.904592 -5.187631 0.000000 0.000000 0.000000 -3.674713 3.627355 2.258869 -3.136487 -11.329161 -11.762385 22.195325 -4.693333 -1.295938 -14.164937 -2.916141 10.912484 0.000000 0.000000 0.000000 -3.674713 3.627355 2.258869 0.000000 0.000000 0.000000 4.191307 -0.680810 -0.538074 0.983113 -0.144933 0.054478 0.000000 0.000000 0.000000 0.983032 -0.152245 0.066660 0.392701 -0.092653 0.028911 0.000000 0.000000 0.000000 0.983032 -0.152245 0.066660 0.672029 -2.087341 -16.865549 4.773026 -6.120769 -37.983461 0.000010 -66.086151 0.000009 0.000000 0.000000 0.000000 0.983032 -0.152245 0.066660 0.391141 7.989680 19.911497 -4.059860 6.438541 55.791601 0.000007 9.308321 -0.000033 0.000000 0.000000 0.000000 
0.070509 94.164215 3.935246 0.000000 0.000000 0.000000 -3.680882 3.734965 2.301568 -2.556563 8.095150 4.475308 18.305131 3.365628 0.575966 -11.378227 0.899712 -5.127386 0.000000 0.000000 0.000000 -3.680882 3.734965 2.301568 -3.059730 -11.333487 -11.797890 22.179991 -4.790258 -1.293770 -14.203050 -2.942394 10.954366 0.000000 0.000000 0.000000 -3.680882 3.734965 2.301568 0.000000 0.000000 0.000000 4.137378 -0.649317 -0.542182 0.973502 -0.135124 0.054478 0.000000 0.000000 0.000000 0.973426 -0.142600 0.063642 0.398398 -0.047081 0.022238 0.000000 0.000000 0.000000 0.973426 -0.142600 0.063642 0.674783 -2.075989 -16.886591 4.763881 -6.120302 -37.993272 -0.000014 -66.070674 -0.000022 0.000000 0.000000 0.000000 0.973426 -0.142600 0.063642 0.496742 7.917474 19.494031 -4.102381 6.374797 55.961400 0.000006 9.187387 0.000000 0.000000 0.000000 0.000000 
0.087430 94.166061 3.959349 0.000000 0.000000 0.000000 -3.699942 3.853730 2.342338 -2.528659 8.088605 4.427617 18.264240 3.308530 0.563280 -11.350304 0.894533 -5.070291 0.000000 0.000000 0.000000 -3.699942 3.853730 2.342338 -2.955336 -11.339078 -11.823612 22.157221 -4.898051 -1.291359 -14.245606 -2.970911 10.996309 0.000000 0.000000 0.000000 -3.699942 3.853730 2.342338 0.000000 0.000000 0.000000 4.080940 -0.617679 -0.543798 0.963431 -0.125848 0.054477 0.000000 0.000000 0.000000 0.963360 -0.133434 0.060672 0.404202 -0.001011 0.015363 0.000000 0.000000 0.000000 0.963360 -0.133434 0.060672 0.676296 -2.067980 -16.914796 4.749171 -6.105758 -37.999109 0.000031 -66.064848 0.000022 0.000000 0.000000 0.000000 0.963360 -0.133434 0.060672 0.607327 7.827269 19.047700 -4.127412 6.342299 56.153219 -0.000009 9.128162 0.000012 0.000000 0.000000 0.000000 
0.109298 94.167175 3.984026 0.000000 0.000000 0.000000 -3.708175 3.980493 2.383588 -2.501842 8.081275 4.382978 18.198505 3.248114 0.549123 -11.307781 0.883881 -5.039378 0.000000 0.000000 0.000000 -3.708175 3.980493 2.383588 -2.857769 -11.342166 -11.853307 22.129307 -5.011192 -1.285614 -14.285161 -3.000178 11.043472 0.000000 0.000000 0.000000 -3.708175 3.980493 2.383588 0.000000 0.000000 0.000000 4.021380 -0.589291 -0.542841 0.952045 -0.118682 0.054478 0.000000 0.000000 0.000000 0.951978 -0.126079 0.058449 0.412463 0.044735 0.008128 0.000000 0.000000 0.000000 0.951978 -0.126079 0.058449 0.674335 -2.062279 -16.938406 4.733432 -6.075015 -38.009009 0.000050 -66.063475 0.000052 0.000000 0.000000 0.000000 0.951978 -0.126079 0.058449 0.722519 7.728452 18.567237 -4.161884 6.358288 56.391500 -0.000001 9.076880 -0.000004 0.000000 0.000000 0.000000 
0.130347 94.168533 4.006367 0.000000 0.000000 0.000000 -3.718379 4.122600 2.429518 -2.504406 8.072010 4.329751 18.176375 3.166623 0.531459 -11.280182 0.874099 -4.951915 0.000000 0.000000 0.000000 -3.718379 4.122600 2.429518 -2.756542 -11.345834 -11.884218 22.105938 -5.140305 -1.279581 -14.328834 -3.028778 11.093488 0.000000 0.000000 0.000000 -3.718379 4.122600 2.429518 0.000000 0.000000 0.000000 3.960928 -0.567104 -0.536492 0.939746 -0.114587 0.054479 0.000000 0.000000 0.000000 0.939684 -0.121878 0.056771 0.422560 0.089670 0.000438 0.000000 0.000000 0.000000 0.939684 -0.121878 0.056771 0.673554 -2.056963 -16.946727 4.721898 -6.032070 -38.030650 0.000023 -66.064035 0.000023 0.000000 0.000000 0.000000 0.939684 -0.121878 0.056771 0.838653 7.629913 18.069607 -4.212543 6.404045 56.658311 -0.000001 9.006539 0.000014 0.000000 0.000000 0.000000 
0.153827 94.167603 4.027708 0.000000 0.000000 0.000000 -3.722519 4.269940 2.478930 -2.504757 8.058962 4.275137 18.135161 3.087216 0.515592 -11.240841 0.863479 -4.893748 0.000000 0.000000 0.000000 -3.722519 4.269940 2.478930 -2.669803 -11.348492 -11.922315 22.099439 -5.275585 -1.273524 -14.380632 -3.056212 11.148093 0.000000 0.000000 0.000000 -3.722519 4.269940 2.478930 0.000000 0.000000 0.000000 3.902581 -0.549683 -0.526517 0.927811 -0.111797 0.054478 0.000000 0.000000 0.000000 0.927752 -0.118905 0.055079 0.433876 0.133639 -0.005744 0.000000 0.000000 0.000000 0.927752 -0.118905 0.055079 0.674241 -2.050012 -16.937582 4.716806 -5.983027 -38.063879 -0.000012 -66.065900 -0.000015 0.000000 0.000000 0.000000 0.927752 -0.118905 0.055079 0.954705 7.546254 17.552314 -4.274644 6.486531 56.965991 0.000002 8.960765 -0.000007 0.000000 0.000000 0.000000 
0.182403 94.162277 4.048264 0.000000 0.000000 0.000000 -3.708242 4.417576 2.533801 -2.528217 8.042598 4.206286 18.102588 3.009250 0.503617 -11.205102 0.852154 -4.834763 0.000000 0.000000 0.000000 -3.708242 4.417576 2.533801 -2.621914 -11.349707 -11.977129 22.125250 -5.410896 -1.267497 -14.444696 -3.081906 11.209904 0.000000 0.000000 0.000000 -3.708242 4.417576 2.533801 0.000000 0.000000 0.000000 3.851445 -0.540380 -0.510078 0.917879 -0.109573 0.054478 0.000000 0.000000 0.000000 0.917821 -0.116511 0.053550 0.446298 0.175773 -0.010758 0.000000 0.000000 0.000000 0.917821 -0.116511 0.053550 0.675293 -2.042199 -16.917940 4.717785 -5.931964 -38.100660 0.000020 -66.068659 0.000017 0.000000 0.000000 0.000000 0.917821 -0.116511 0.053550 1.069659 7.471440 17.025814 -4.301212 6.572041 57.286046 -0.000001 9.036267 -0.000000 0.000000 0.000000 0.000000 
0.210721 94.159271 4.064754 0.000000 0.000000 0.000000 -3.705445 4.580431 2.584062 -2.561275 8.021165 4.140741 18.094535 2.925564 0.496590 -11.174842 0.842828 -4.762023 0.000000 0.000000 0.000000 -3.705445 4.580431 2.584062 -2.544575 -11.351712 -12.018841 22.125710 -5.570252 -1.260941 -14.497391 -3.101642 11.274164 0.000000 0.000000 0.000000 -3.705445 4.580431 2.584062 0.000000 0.000000 0.000000 3.807512 -0.525674 -0.485272 0.909464 -0.107326 0.054479 0.000000 0.000000 0.000000 0.909408 -0.114606 0.052360 0.456429 0.214415 -0.014123 0.000000 0.000000 0.000000 0.909408 -0.114606 0.052360 0.675617 -2.034075 -16.896819 4.724271 -5.879879 -38.130521 0.000026 -66.073788 0.000048 0.000000 0.000000 0.000000 0.909408 -0.114606 0.052360 1.182843 7.409092 16.491285 -4.213238 6.632033 57.602291 -0.000002 9.450958 0.000016 0.000000 0.000000 0.000000 
0.239152 94.157158 4.079296 0.000000 0.000000 0.000000 -3.707433 4.749871 2.632326 -2.597850 7.995106 4.074408 18.096064 2.846112 0.495292 -11.146257 0.833687 -4.687702 0.000000 0.000000 0.000000 -3.707433 4.749871 2.632326 -2.452994 -11.343068 -12.052536 22.115941 -5.756155 -1.253832 -14.544862 -3.115036 11.343061 0.000000 0.000000 0.000000 -3.707433 4.749871 2.632326 0.000000 0.000000 0.000000 3.766953 -0.508143 -0.456775 0.901723 -0.105021 0.054479 0.000000 0.000000 0.000000 0.901667 -0.112975 0.051686 0.465488 0.251572 -0.016782 0.000000 0.000000 0.000000 0.901667 -0.112975 0.051686 0.674425 -2.024122 -16.879347 4.735007 -5.826429 -38.149342 -0.000009 -66.094334 -0.000020 0.000000 0.000000 0.000000 0.901667 -0.112975 0.051686 1.294703 7.353246 15.952796 -3.959965 6.634156 57.889610 -0.000004 10.312910 0.000013 0.000000 0.000000 0.000000 
0.268358 94.155098 4.092735 0.000000 0.000000 0.000000 -3.711112 4.921980 2.679955 -2.625834 7.961074 4.010436 18.072684 2.750572 0.500520 -11.102048 0.819269 -4.646681 0.000000 0.000000 0.000000 -3.711112 4.921980 2.679955 -2.359337 -11.339242 -12.086359 22.102782 -5.948306 -1.246590 -14.590165 -3.120529 11.414359 0.000000 0.000000 0.000000 -3.711112 4.921980 2.679955 0.000000 0.000000 0.000000 3.728270 -0.488513 -0.426846 0.894289 -0.102353 0.054479 0.000000 0.000000 0.000000 0.894232 -0.111042 0.051702 0.474388 0.288365 -0.019114 0.000000 0.000000 0.000000 0.894232 -0.111042 0.051702 0.673715 -2.010311 -16.863930 4.744564 -5.773199 -38.164966 -0.000040 -66.130930 -0.000051 0.000000 0.000000 0.000000 0.894232 -0.111042 0.051702 1.405231 7.306503 15.410003 -3.438465 6.538362 58.126904 0.000004 11.896140 -0.000000 0.000000 0.000000 0.000000 
0.297156 94.153625 4.104925 0.000000 0.000000 0.000000 -3.712113 5.094905 2.726917 -2.673902 7.917907 3.936356 18.086237 2.679180 0.508316 -11.075387 0.810447 -4.564946 0.000000 0.000000 0.000000 -3.712113 5.094905 2.726917 -2.267096 -11.342574 -12.120718 22.084681 -6.144332 -1.239203 -14.632521 -3.116069 11.486612 0.000000 0.000000 0.000000 -3.712113 5.094905 2.726917 0.000000 0.000001 0.000000 3.691395 -0.465956 -0.395974 0.887024 -0.098867 0.054478 0.000000 0.000000 0.000000 0.886965 -0.108221 0.052586 0.482597 0.324518 -0.021170 0.000000 0.000000 0.000000 0.886965 -0.108221 0.052586 0.673663 -1.991331 -16.844081 4.743125 -5.726477 -38.192577 -0.000015 -66.173796 -0.000026 0.000000 0.000000 0.000000 0.886965 -0.108221 0.052586 1.514340 7.274575 14.861850 -2.574636 6.322321 58.308287 0.000000 14.400139 -0.000008 0.000000 0.000000 0.000000 
